{
  "accessors": [
    {
      "bufferView": 2,
      "componentType": 5126,
      "count": 930,
      "max": [
        0.133899986743927,
        0.133899986743927,
        0.2677173912525177
      ],
      "min": [
        -0.133899986743927,
        -0.133899986743927,
        -8.257594890892506e-05
      ],
      "type": "VEC3"
    },
    {
      "bufferView": 2,
      "byteOffset": 11160,
      "componentType": 5126,
      "count": 930,
      "max": [
        1.0,
        1.0,
        0.9998694062232971
      ],
      "min": [
        -1.0,
        -1.0,
        -0.9998693466186523
      ],
      "type": "VEC3"
    },
    {
      "bufferView": 3,
      "componentType": 5126,
      "count": 930,
      "max": [
        0.9966897964477539,
        0.996239960193634,
        0.9967437982559204,
        1.0
      ],
      "min": [
        -0.9966866374015808,
        -0.9948925971984863,
        -0.9964950084686279,
        1.0
      ],
      "type": "VEC4"
    },
    {
      "bufferView": 1,
      "componentType": 5126,
      "count": 930,
      "max": [
        0.8304914236068726,
        0.9985595941543579
      ],
      "min": [
        0.0014404497342184186,
        0.0014404483372345567
      ],
      "type": "VEC2"
    },
    {
      "bufferView": 1,
      "byteOffset": 7440,
      "componentType": 5126,
      "count": 930,
      "max": [
        0.8304914236068726,
        0.9985595941543579
      ],
      "min": [
        0.0014404497342184186,
        0.0014404483372345567
      ],
      "type": "VEC2"
    },
    {
      "bufferView": 1,
      "byteOffset": 14880,
      "componentType": 5126,
      "count": 930,
      "max": [
        0.8304914236068726,
        0.9985595941543579
      ],
      "min": [
        0.0014404497342184186,
        0.0014404483372345567
      ],
      "type": "VEC2"
    },
    {
      "bufferView": 0,
      "componentType": 5125,
      "count": 4890,
      "type": "SCALAR"
    }
  ],
  "asset": {
    "extras": {
      "author": "rickmaolly (https://sketchfab.com/rickmaolly)",
      "license": "CC-BY-4.0 (http://creativecommons.org/licenses/by/4.0/)",
      "source": "https://sketchfab.com/3d-models/trash-can-a65eb3a1b6f149d7a78f7f44e80c7627",
      "title": "Trash Can"
    },
    "generator": "Sketchfab-15.26.0",
    "version": "2.0"
  },
  "bufferViews": [
    {
      "buffer": 0,
      "byteLength": 19560,
      "name": "floatBufferViews",
      "target": 34963
    },
    {
      "buffer": 0,
      "byteLength": 22320,
      "byteOffset": 19560,
      "byteStride": 8,
      "name": "floatBufferViews",
      "target": 34962
    },
    {
      "buffer": 0,
      "byteLength": 22320,
      "byteOffset": 41880,
      "byteStride": 12,
      "name": "floatBufferViews",
      "target": 34962
    },
    {
      "buffer": 0,
      "byteLength": 14880,
      "byteOffset": 64200,
      "byteStride": 16,
      "name": "floatBufferViews",
      "target": 34962
    }
  ],
  "buffers": [
    {
      "byteLength": 79080,
      "uri": "scene.bin"
    }
  ],
  "images": [
    {
      "uri": "textures/M_TrashCan_baseColor.png"
    },
    {
      "uri": "textures/M_TrashCan_metallicRoughness.png"
    },
    {
      "uri": "textures/M_TrashCan_normal.png"
    }
  ],
  "materials": [
    {
      "alphaMode": "BLEND",
      "doubleSided": true,
      "name": "M_TrashCan",
      "normalTexture": {
        "index": 2
      },
      "pbrMetallicRoughness": {
        "baseColorTexture": {
          "index": 0
        },
        "metallicRoughnessTexture": {
          "index": 1
        }
      }
    }
  ],
  "meshes": [
    {
      "name": "SM_TrashCan_M_TrashCan_0",
      "primitives": [
        {
          "attributes": {
            "NORMAL": 1,
            "POSITION": 0,
            "TANGENT": 2,
            "TEXCOORD_0": 3,
            "TEXCOORD_1": 4,
            "TEXCOORD_2": 5
          },
          "indices": 6,
          "material": 0,
          "mode": 4
        }
      ]
    }
  ],
  "nodes": [
    {
      "children": [
        1
      ],
      "matrix": [
        1.0,
        0.0,
        0.0,
        0.0,
        0.0,
        2.220446049250313e-16,
        -1.0,
        0.0,
        0.0,
        1.0,
        2.220446049250313e-16,
        0.0,
        0.0,
        0.0,
        0.0,
        1.0
      ],
      "name": "Sketchfab_model"
    },
    {
      "children": [
        2
      ],
      "matrix": [
        0.009999999776482582,
        0.0,
        0.0,
        0.0,
        0.0,
        0.0,
        0.009999999776482582,
        0.0,
        0.0,
        -0.009999999776482582,
        0.0,
        0.0,
        0.0,
        0.0,
        0.0,
        1.0
      ],
      "name": "TrashCan.fbx"
    },
    {
      "children": [
        3
      ],
      "name": "RootNode"
    },
    {
      "children": [
        4
      ],
      "matrix": [
        100.0,
        0.0,
        0.0,
        0.0,
        0.0,
        -1.629206793918314e-05,
        -99.99999999999868,
        0.0,
        0.0,
        99.99999999999868,
        -1.629206793918314e-05,
        0.0,
        0.0,
        0.0,
        0.0,
        1.0
      ],
      "name": "SM_TrashCan"
    },
    {
      "mesh": 0,
      "name": "SM_TrashCan_M_TrashCan_0"
    }
  ],
  "samplers": [
    {
      "magFilter": 9729,
      "minFilter": 9987,
      "wrapS": 10497,
      "wrapT": 10497
    }
  ],
  "scene": 0,
  "scenes": [
    {
      "name": "Sketchfab_Scene",
      "nodes": [
        0
      ]
    }
  ],
  "textures": [
    {
      "sampler": 0,
      "source": 0
    },
    {
      "sampler": 0,
      "source": 1
    },
    {
      "sampler": 0,
      "source": 2
    }
  ]
}
